<?xml version="1.0" encoding="UTF-8"?>
<svg id="Layer_1" data-name="Layer 1" xmlns="http://www.w3.org/2000/svg" viewBox="0 0 140 140">
  <defs>
    <style>
      .cls-1 {
        fill: #fff;
      }

      .cls-2 {
        fill: #012169;
      }

      .cls-3 {
        fill: #c8102e;
      }
    </style>
  </defs>
  <path class="cls-2" d="M137.5,70c0,3.89-.33,7.71-.96,11.42-.52,3.08-1.26,6.08-2.18,9-.95,2.99-2.1,5.9-3.44,8.7-.59,1.24-1.23,2.46-1.89,3.66-1.33,2.39-2.8,4.68-4.39,6.88-2.41,3.32-5.12,6.41-8.09,9.24-7.49,7.13-16.63,12.56-26.77,15.66-2.66.81-5.39,1.47-8.17,1.95-3.77.65-7.64.99-11.6.99s-8.04-.36-11.91-1.05c-2.79-.49-5.51-1.16-8.17-1.99-10.08-3.14-19.15-8.57-26.59-15.7-.99-.95-1.95-1.93-2.89-2.94-1.81-1.95-3.5-4.01-5.07-6.17-2.43-3.35-4.57-6.93-6.36-10.7-1.3-2.75-2.43-5.6-3.36-8.53-.93-2.92-1.66-5.92-2.18-9-.63-3.71-.96-7.53-.96-11.42s.33-7.77.98-11.51c.53-3.08,1.26-6.08,2.2-9,.93-2.93,2.06-5.77,3.36-8.5.59-1.24,1.22-2.46,1.89-3.66,1.32-2.39,2.79-4.69,4.38-6.88,2.41-3.32,5.11-6.42,8.07-9.25,7.43-7.1,16.48-12.52,26.54-15.65,2.66-.83,5.39-1.49,8.17-1.99,3.87-.69,7.85-1.05,11.91-1.05s7.83.34,11.6.99c2.79.48,5.51,1.13,8.17,1.95,10.12,3.1,19.24,8.51,26.72,15.62,1,.95,1.96,1.92,2.9,2.93,1.85,1.99,3.59,4.09,5.2,6.3,2.4,3.3,4.51,6.82,6.3,10.53,1.27,2.64,2.37,5.37,3.29,8.18,1,3.07,1.8,6.24,2.35,9.49.64,3.74.98,7.59.98,11.51Z"/>
  <path class="cls-1" d="M137.5,70c0,3.89-.33,7.71-.96,11.42-.52,3.08-1.26,6.08-2.18,9h-15.44l12,8.7c-.59,1.24-1.23,2.46-1.89,3.66-1.33,2.39-2.8,4.68-4.39,6.88-2.41,3.32-5.12,6.41-8.09,9.24l-26.77-19.4v35.07c-2.66.81-5.39,1.47-8.17,1.95-3.77.65-7.64.99-11.6.99s-8.04-.36-11.91-1.05c-2.79-.49-5.51-1.16-8.17-1.99v-34.97l-26.59,19.27c-.99-.95-1.95-1.93-2.89-2.94-1.81-1.95-3.5-4.01-5.07-6.17-2.43-3.35-4.57-6.93-6.36-10.7l11.77-8.53H5.65c-.93-2.92-1.66-5.92-2.18-9-.63-3.71-.96-7.53-.96-11.42s.33-7.77.98-11.51c.53-3.08,1.26-6.08,2.2-9h15.1l-11.74-8.5c.59-1.24,1.22-2.46,1.89-3.66,1.32-2.39,2.79-4.69,4.38-6.88,2.41-3.32,5.11-6.42,8.07-9.25l26.54,19.24V5.54c2.66-.83,5.39-1.49,8.17-1.99,3.87-.69,7.85-1.05,11.91-1.05s7.83.34,11.6.99c2.79.48,5.51,1.13,8.17,1.95v34.98l26.72-19.36c1,.95,1.96,1.92,2.9,2.93,1.85,1.99,3.59,4.09,5.2,6.3,2.4,3.3,4.51,6.82,6.3,10.53l-11.07,8.02,14.35.16c1,3.07,1.8,6.24,2.35,9.49.64,3.74.98,7.59.98,11.51Z"/>
  <path class="cls-3" d="M38.79,47.45h-13.88l-13.99-10.14c1.32-2.39,2.79-4.69,4.38-6.88l23.49,17.02Z"/>
  <path class="cls-3" d="M52.68,92.45l-32.25,23.37c-1.81-1.95-3.5-4.01-5.07-6.17l23.92-17.2h13.4Z"/>
  <path class="cls-3" d="M129.02,102.78c-1.33,2.39-2.8,4.68-4.39,6.88l-23.74-17.2h13.89l14.25,10.33Z"/>
  <path class="cls-3" d="M124.59,30.28l-23.69,17.17h-13.88l32.38-23.47c1.85,1.99,3.59,4.09,5.2,6.3Z"/>
  <path class="cls-3" d="M137.5,70c0,3.89-.33,7.71-.96,11.42h-54.94v55.08c-3.77.65-7.64.99-11.6.99s-8.04-.36-11.91-1.05v-55.03H3.46c-.63-3.71-.96-7.53-.96-11.42s.33-7.77.98-11.51h54.61V3.55c3.87-.69,7.85-1.05,11.91-1.05s7.83.34,11.6.99v55h54.92c.64,3.74.98,7.59.98,11.51Z"/>
</svg>